<svg xmlns="http://www.w3.org/2000/svg" viewBox="0 0 256.04 118.75"><g id="Layer_2" data-name="Layer 2"><g id="Layer_1-2" data-name="Layer 1"><path d="M53.72,94.87l.93-3.7c1.93,1.25,2.39,4.57,1.14,6.73-.26.45-.63.84-.92,1.27-1,1.45-2.13,1.5-3-.06-.73-1.3-1.07-2.8-1.7-4.16-3.23-6.89-4.95-14.23-6.84-21.55-1.57-6.08-3.9-12-5.91-17.93a8.69,8.69,0,0,0-.91-1.3c-.54,1.86-1,3.3-1.37,4.73-1.75,6.19-3.27,12.46-5.31,18.56a51.75,51.75,0,0,1-4.95,10.18c-1.21,2-3.66,1.91-5.12,0-2.69-3.42-5.11-6.93-5.9-11.48A53.89,53.89,0,0,0,9.94,64.36c-.17,3.92-.14,7.87-.57,11.76C8.28,86,7,95.89,5.77,105.78c-.32,2.68-.56,5.37-1,8a12.08,12.08,0,0,1-1.25,4,2.43,2.43,0,0,1-2.27.84A2.64,2.64,0,0,1,0,116.43c3.25-10.71,4-21.87,5.79-32.84,1-6.06.82-12.33.91-18.52.06-4.49-.36-9-.44-13.48,0-.76.63-1.53,1-2.3.87.48,2.14.75,2.52,1.49a38,38,0,0,1,2.27,6.09c.65,2.15,1,4.37,1.67,6.52,1.48,5.11,2.9,10.24,4.6,15.28a17.52,17.52,0,0,0,3,4.7c.95,1.25,2.06,1.28,2.71-.35,1.71-4.28,3.68-8.49,5-12.9,2.09-7,3.72-14.14,5.59-21.21.17-.64.68-1.52,1.19-1.65a2.09,2.09,0,0,1,1.78.92,51.11,51.11,0,0,1,3.61,7.68c2.51,7.79,4.76,15.66,7.16,23.49C49.62,83.57,51,87.76,52.38,92A29.27,29.27,0,0,0,53.72,94.87Z"/><path d="M160,26.89a43.46,43.46,0,0,0-6.24,23.16c.11,8-.42,16,2.29,23.64l1.2.11c.92-2.92,2.16-5.78,2.69-8.76a74.47,74.47,0,0,0,.85-22.89c-.17-1.23-.18-2.42-1.79-2.7a1.28,1.28,0,0,1-.77-1,45.1,45.1,0,0,1,.45-5.31c.08-.45.82-1.17,1.17-1.12a2,2,0,0,1,1.41,1.12,84.21,84.21,0,0,1,2.46,10.68c.87,7,.14,14.08-.95,21.05-.63,4-.9,8.21-3.35,11.78-1.62,2.35-2.3,2.56-4.7,1.07a2.16,2.16,0,0,0-1.57-.38c-6,2.54-12.1,5-18,7.8-3.37,1.58-6.48,3.7-9.76,5.49-3.06,1.68-5.47.28-6.3-3.07-2.46-9.86-2.1-20-2.72-30-.43-7-.92-13.92-1.38-20.88a7.3,7.3,0,0,1,0-2.24,6.52,6.52,0,0,1,1-1.67c.58.37,1.52.63,1.68,1.14a23.16,23.16,0,0,1,1.25,5.65c.45,9,.55,18,1.14,27,.37,5.75,1.32,11.46,2.15,17.17.43,2.94,1.1,3.32,3.69,2,3.62-1.78,7-4.08,10.71-5.63A111.86,111.86,0,0,1,149.38,76c2.64-.75,3.34-1.33,2.7-4C150.26,64.59,150.51,57,151,49.43a126,126,0,0,1,2.26-15.3,25.81,25.81,0,0,1,2.45-6C156.44,26.63,157.57,25.71,160,26.89Z"/><path d="M72.72,88.65,74,85.41c2.12,1.8,1.11,9.15-1.18,9.94-1.6.56-2.42-.57-2.81-1.86a37.18,37.18,0,0,1-1.76-6.94,193.48,193.48,0,0,0-5.12-29.68c-1-3.9-1.8-7.85-2.7-11.78-.1-.44-.37-1-.23-1.31a15.2,15.2,0,0,1,1.29-2.14c.59.44,1.55.77,1.7,1.33.83,3,1.48,6,2.15,9q1.68,7.47,3.3,14.94c.32,1.47.46,3,.78,4.43.23,1.06.62,2.09,1,3.21.61-.21,1-.23,1.14-.41a21.27,21.27,0,0,1,10.17-5.44c1.43-.29,1.42-1.29,1.23-2.43-.83-4.87-1.72-9.73-2.42-14.62a18.54,18.54,0,0,1,.14-4.93c.07-.58.81-1.08,1.24-1.62.47.47,1.28.89,1.36,1.42.53,3.18.83,6.4,1.33,9.58s1.11,6,1.69,9.07c.31,1.63,1.21,2.15,2.92,1.88A24.8,24.8,0,0,1,94.35,67c.61,0,1.19.58,1.79.89l0,.63-7.68,2.6a16.83,16.83,0,0,0,.37,2.44C90,77.68,91.22,81.85,92.58,86a34,34,0,0,0,2,4c.73,1.51.21,3.57-1.09,3.89-1.67.41-2.19-.88-2.6-2.15C89,85.82,87,79.93,85.16,74c-.53-1.69-1.19-2-2.92-1.52-4.74,1.24-7.78,4.7-10.92,8-.54.56-.15,2.11,0,3.18.21,1.7.55,3.38.84,5.07Z"/><path d="M193.2,40.26c-.52,1.65-.91,2.69-1.17,3.75-1.22,4.86-2.26,9.78-3.66,14.59A18.32,18.32,0,0,1,185.46,64c-1,1.31-2.18.95-2.66-.61-1.46-4.8-3.11-9.56-4.19-14.44-1.26-5.63-2-11.38-3-17a10.63,10.63,0,0,0-1.42-3.29c-1-1.78-.86-3,.67-3.75,2-1,2.75.38,3.09,1.79,1,4.08,2,8.17,2.54,12.32.88,6.3,1.42,12.66,4.81,18.67.69-2.2,1.46-4.38,2-6.6,1.11-4.18,2-8.44,3.26-12.57a4.86,4.86,0,0,1,2.93-2.9c.7-.18,2.23,1.48,2.8,2.61,2.19,4.35,4.13,8.82,6.16,13.25.13.27.14.66.34.82,1.08.85,2.19,1.65,3.3,2.46.51-1,1.43-2.07,1.45-3.11.09-4.26-.11-8.52-.2-12.78-.15-7.11-.68-14.25.91-21.27A2.24,2.24,0,0,1,209.58,16c.5-.11,1.28.49,1.74,1,1.33,1.35,1.15,2.46.43,4.45-1.24,3.41-1.41,7.32-1.5,11-.16,7,.12,13.94.06,20.9a7.66,7.66,0,0,1-1.24,3.56c-1.23,2.1-3.42,2.67-5.12,1a29,29,0,0,1-5.06-6.4c-1.72-3-2.91-6.37-4.36-9.56A13.78,13.78,0,0,0,193.2,40.26Z"/><path d="M251.31,20.07c-.83.61-1.32,1-1.86,1.37L240,27.65c-2,1.34-4,3.06-6.19,4s-2.34,2.12-1.95,4.12c.63,3.15,1,6.36,1.38,9.55a2.54,2.54,0,0,1-.35,1.7,14.77,14.77,0,0,1-2,1.84c-.53-.66-1.38-1.26-1.52-2-1.09-5.51-2.06-11-3-16.59-.64-3.76-1.28-7.53-1.68-11.33a37.67,37.67,0,0,1,.31-5.38,3.14,3.14,0,0,0-.34-1.89c-1.35-1.65-.84-3.19.31-4.48,5.08-5.64,11.25-8.4,18.91-6.6.83.19,1.46,1.21,2.18,1.85-.76.45-1.59,1.36-2.25,1.25A12.45,12.45,0,0,0,235.32,5a27.44,27.44,0,0,0-4.59,3.15,4,4,0,0,0-1.49,2.67c.17,3.44.69,6.86,1,10.29.09.95-.09,1.94,0,2.89s.25,2.94.69,3a5.59,5.59,0,0,0,3.8-.5c2.73-1.69,5.17-3.86,7.89-5.57C245.13,19.45,247.77,18,251.31,20.07Z"/><path d="M231.68,52.14c.64-.87,1.06-2,1.86-2.43,3.78-1.89,7.59-3.76,11.53-5.29a62.67,62.67,0,0,1,8.61-2.28,9.4,9.4,0,0,1,2.36.07c-.51.6-.9,1.46-1.55,1.75-4.55,2-9.2,3.86-13.71,6-1.94.91-3.59,2.42-5.48,3.46a5,5,0,0,1-2.71.41C232.3,53.77,232.06,52.87,231.68,52.14Z"/></g></g></svg>